<svg id="图层_1" data-name="图层 1" xmlns="http://www.w3.org/2000/svg" viewBox="0 0 59.33 59.33">
<defs><style>.cls-1{fill:none;}.cls-2{fill:#7fc37b;}.cls-3{fill:#78c8cb;}.cls-4{fill:#231815;}</style></defs><rect class="cls-1" x="0.5" y="0.5" width="58.33" height="58.33"/>
<rect class="cls-2" x="7.8" y="13.87" width="44.87" height="38.19"/>
<rect class="cls-3" x="6.82" y="7.06" width="46.84" height="7.02"/>
<path d="M29.66,5.61H47.71a5.76,5.76,0,0,1,5.95,5,5.14,5.14,0,0,1,.06.88V47.89a5.77,5.77,0,0,1-5.86,5.83H11.46a5.77,5.77,0,0,1-5.85-5.89q0-18.16,0-36.34a5.76,5.76,0,0,1,5.91-5.88Q20.6,5.59,29.66,5.61Zm-22.4,10v32a4.2,4.2,0,0,0,4.5,4.5H47.58a4.19,4.19,0,0,0,4.48-4.46v-32Zm.08-1.71H52.12a25.59,25.59,0,0,0-.21-3.43,4.1,4.1,0,0,0-4.28-3.18H11.29a4,4,0,0,0-3.93,3.51A24.43,24.43,0,0,0,7.34,13.87Z"/>
<path class="cls-4" d="M29.66,54.22H11.46a6.23,6.23,0,0,1-6.35-6.38q0-18.18,0-36.35a6.25,6.25,0,0,1,6.41-6.38H47.71a6.24,6.24,0,0,1,6.44,5.36,5.41,5.41,0,0,1,.07,1V47.89a6.29,6.29,0,0,1-6.36,6.33ZM24.48,6.11h-13a5.27,5.27,0,0,0-5.41,5.38q0,18.17,0,36.35a5.25,5.25,0,0,0,5.35,5.38h36.4a5.3,5.3,0,0,0,5.36-5.33V11.44a5.16,5.16,0,0,0,0-.79,5.24,5.24,0,0,0-5.46-4.54Zm23.1,46.45H11.76a4.68,4.68,0,0,1-5-5V15.08h45.8V47.6A4.7,4.7,0,0,1,47.58,52.56ZM7.76,16.08V47.56a3.71,3.71,0,0,0,4,4H47.58a3.68,3.68,0,0,0,4-4V16.08Zm44.89-1.71H6.84v-.5c0-.33,0-.65,0-1a13.23,13.23,0,0,1,0-2.18,4.54,4.54,0,0,1,4.4-4H47.63a4.59,4.59,0,0,1,4.77,3.59,15.06,15.06,0,0,1,.19,2.41q0,.54,0,1.08Zm-44.82-1H51.6c0-.2,0-.39,0-.58a14.91,14.91,0,0,0-.17-2.26,3.58,3.58,0,0,0-3.79-2.77H11.32a3.51,3.51,0,0,0-3.46,3.08,12.13,12.13,0,0,0,0,2C7.82,13,7.83,13.2,7.83,13.37Z"/><path d="M12.25,12.24a1.66,1.66,0,1,1,1.65-1.68A1.65,1.65,0,0,1,12.25,12.24Z"/>
<path class="cls-4" d="M12.24,12.74a2.14,2.14,0,0,1-1.53-.63,2.17,2.17,0,0,1-.63-1.54A2.13,2.13,0,0,1,12.2,8.43h0a2.13,2.13,0,0,1,2.17,2.13,2.2,2.2,0,0,1-.62,1.55,2.15,2.15,0,0,1-1.53.63h0Zm0-3.31h0a1.13,1.13,0,0,0-1.13,1.15,1.16,1.16,0,0,0,.34.83,1.38,1.38,0,0,0,.83.33h0a1.13,1.13,0,0,0,.82-.34,1.19,1.19,0,0,0,.33-.83,1.13,1.13,0,0,0-.34-.82A1.16,1.16,0,0,0,12.23,9.43Z"/><path d="M20.54,10.6a1.66,1.66,0,1,1-1.65-1.67A1.65,1.65,0,0,1,20.54,10.6Z"/>
<path class="cls-4" d="M18.86,12.74h0a2.16,2.16,0,0,1-1.49-3.69,2.15,2.15,0,0,1,1.53-.62h0a2.14,2.14,0,0,1,1.53.63A2.2,2.2,0,0,1,21,10.61h0a2.13,2.13,0,0,1-.64,1.51A2.16,2.16,0,0,1,18.86,12.74Zm0-3.31a1.11,1.11,0,0,0-.82.33,1.16,1.16,0,0,0,.79,2h0A1.14,1.14,0,0,0,20,10.6h0a1.21,1.21,0,0,0-.33-.84,1.19,1.19,0,0,0-.83-.33Z"/><path d="M25.49,12.24a1.64,1.64,0,0,1-1.63-1.69,1.66,1.66,0,1,1,1.63,1.69Z"/>
<path class="cls-4" d="M25.5,12.74h0A2.11,2.11,0,0,1,24,12.1a2.17,2.17,0,0,1-.61-1.56,2.13,2.13,0,0,1,2.15-2.11,2,2,0,0,1,1.54.62,2.16,2.16,0,0,1,.62,1.54A2.12,2.12,0,0,1,27,12.12,2.16,2.16,0,0,1,25.5,12.74Zm0-1h0a1.2,1.2,0,0,0,.84-.33,1.18,1.18,0,0,0,.33-.82,1.13,1.13,0,0,0-1.16-1.16h0a1.16,1.16,0,0,0-.82,2,1.11,1.11,0,0,0,.81.34Z"/></svg>